<?xml version="1.0" encoding="utf-8"?>
<!-- Svg Vector Icons : http://www.onlinewebfonts.com/icon -->
<!DOCTYPE svg PUBLIC "-//W3C//DTD SVG 1.1//EN" "http://www.w3.org/Graphics/SVG/1.1/DTD/svg11.dtd">
<svg version="1.1" xmlns="http://www.w3.org/2000/svg" xmlns:xlink="http://www.w3.org/1999/xlink" x="0px" y="0px" viewBox="0 0 1000 1000" enable-background="new 0 0 1000 1000" xml:space="preserve">
<metadata> Svg Vector Icons : http://www.onlinewebfonts.com/icon </metadata>
<g><path d="M951.5,309.3c-24.7-58.3-60-110.8-105-155.8c-45-45-97.4-80.3-155.8-105C630.3,23,566.1,10,500,10c-66.1,0-130.3,13-190.7,38.5c-58.4,24.7-110.8,60-155.8,105c-45,45-80.3,97.4-105,155.8C23,369.7,10,433.9,10,500s13,130.3,38.5,190.7c24.7,58.3,60,110.8,105,155.8c45,45,97.4,80.3,155.8,105C369.7,977,433.9,990,500,990c66.1,0,130.3-13,190.7-38.5c58.3-24.7,110.8-60,155.8-105c45-45,80.3-97.4,105-155.8C977,630.3,990,566.1,990,500C990,433.9,977,369.7,951.5,309.3z M500,978.7C236.1,978.7,21.3,763.9,21.3,500C21.3,236.1,236.1,21.3,500,21.3c263.9,0,478.7,214.7,478.7,478.7S763.9,978.7,500,978.7z"/></g>
</svg>